/* XPM */
static char *_482_d1579d9995ec9b49fbe2a8f723e756f78f9ad5a7e6a7ee539fee66425fcb500f[] = {
/* columns rows colors chars-per-pixel */
"48 48 96 2 ",
"   c #3E3A33",
".  c #413C34",
"X  c #45423A",
"o  c #4C463A",
"O  c #474542",
"+  c #4A4741",
"@  c #4C4A45",
"#  c #4E4C4A",
"$  c #524D45",
"%  c #514E4A",
"&  c #54524D",
"*  c #4E4F50",
"=  c #555553",
"-  c #595653",
";  c #5C5A55",
":  c #57595B",
">  c #5C5C5B",
",  c #635E55",
"<  c #605E5C",
"1  c #62615E",
"2  c #69665F",
"3  c #5C5F62",
"4  c #605F60",
"5  c #5E6162",
"6  c #636463",
"7  c #686563",
"8  c #666867",
"9  c #6B6966",
"0  c #646669",
"q  c #68676A",
"w  c #65696D",
"e  c #6B6B6C",
"r  c #706E6F",
"t  c #6F706F",
"y  c #73726F",
"u  c #666C71",
"i  c #6C6E72",
"p  c #706F71",
"a  c #6D7175",
"s  c #6E737A",
"d  c #727374",
"f  c #797776",
"g  c #7B7877",
"h  c #73757B",
"j  c #78777B",
"k  c #75797E",
"l  c #7B7B7D",
"z  c #817F7E",
"x  c #83807E",
"c  c #707780",
"v  c #757A82",
"b  c #7B7D83",
"n  c #7B7F88",
"m  c #817F84",
"M  c #7D8086",
"N  c #7D828A",
"B  c #7F8692",
"V  c #7F8890",
"C  c #838285",
"Z  c #898687",
"A  c #83858C",
"S  c #888689",
"D  c #86898E",
"F  c #8A8A8D",
"G  c #838790",
"H  c #858A93",
"J  c #8B8D94",
"K  c #868F99",
"L  c #8B8E99",
"P  c #908E93",
"I  c #908F98",
"U  c #8E9196",
"Y  c #86919B",
"T  c #8D929B",
"R  c #929296",
"E  c #92949C",
"W  c #99969E",
"Q  c #97989E",
"!  c #9A999D",
"~  c #8E96A0",
"^  c #9396A1",
"/  c #959AA3",
"(  c #9A9BA4",
")  c #979FAB",
"_  c #9B9EA9",
"`  c #A09DA5",
"'  c #9EA0A6",
"]  c #9CA1AB",
"[  c #A1A1A6",
"{  c #A2A4AB",
"}  c #A9A7AC",
"|  c #AAA8AC",
" . c #A1A6B0",
".. c #A5AAB4",
"X. c #A9AEB9",
"o. c #B0AEB7",
/* pixels */
"h i N A L L M f J m v q s c I b i G n p Z U R Z 9 X.M s V K ../ ] N N ~ a s v N R R D 8 = v v s ",
"h 6 t J T G L b p ( J ( ^ L I ( ^ H p z R ! F C f ^ V T V N / ] Y / 5 s J V M C R F M l 5 : n e ",
"9 8 9 > 6 d 6 h 4 4 I _ ( m ^ ^ l , g m Z Q E R ! @ a K Y V u K ~ M T D 5 t Z C U K k a h 5 > = ",
"v k L U J 1 : u h i * # L L i r m Z P F R ( { { | x y ] V V V M a s h r F R / V a u v * > < f d ",
"G A n S A G 5 @ v a n v 4 m W m F I ^ Z J Z { } [ | A a V ~ M s a M d e b A b n 5   & e l Z b v ",
"i l v D ( J N X q a 4 j W o._ L ^ ( I z f F R ` ! [ U v s 8 M s c : d a * 0 > - 8 a A b C k m d ",
"P b b M H U A 9 # 4 v L ` ( { ^ I b p d E a l R A U Y N N a u N 5 9 e % ; 9 6 d h V F j v l n S ",
"A S h a v F ( j = = s m J ^ / T H I I m ` R m J M u s s N V N N C > 7 9 D b < & k U M a r > e b ",
"h e J h i v H m p q 4 B v H L ^ ' M C t U P A U M H N s v 5 v u h ; d H h N r ; m j b m p j e q ",
"D n P n H H G J m h 3 w c v m L J Q l U D M H A v M a s a c c N r w G A C 0 d l # v p b I m m m ",
"b ( C A m ^ P F A h q 4 s n H H b M Z E Q l U H a k u k s B B w < F A q j Q } I < b h m b j m j ",
"p 7 C b m m j ` m m v v u n c c N G a 6 M a N N M v v 0 v K b 3 z 4 C I E J A I f j S p 4 j r j ",
"p i p d i h 4 p b e d v i w u B 0 v d i H ^ J M M B H B G i d C j I ( m F h a L z i m j v 4 4 p ",
"A I v q v m I m h h 7 0 w u i c H a M n N a Y U L A K H N / 6 C ` G m s m m v s p - p m r m m P ",
"J F ( P q m m j p F < % u 0 0 w 3 e H n b K N v n N N h A A r d W I c m n H m J F z 4 b m F q m ",
"S F m m I b < 4 4 % p l u s s i v s N i V N v h u v A b 3 X & m q v m m h p j ( I 4 b d S q m m ",
"; 6 = 0 d 1 5 5 5 e t T b A v b a n v u 0 6 > = O . . o , < d j 4 4 w 0 0 J n E J p m m p f m q ",
"C D : & o 1 x R F ~ ' T T d O M H a : 6 p h d y 1 6 h M % 7 A d m I n G I L L H L a % 3 F m p p ",
"& + o t a ' ] X. .' ~ M H S r v l A a a L B _ L M L G / l - A I m m h H m H I m c m r r I b 7 @ ",
"e 7 1 J X.] ] V V N H T N H b e s h l / ^ I ^ G J ( ( ] ` - b d c H d v b m n n J I z % & - < 2 ",
"^ ) E U Y Y 5 M V Y A V c L m s 6 h ^ H L ^ ^ ^ L ( _ ^ _ S h h L A H ( L A ( ( E v < $ . , 2 S ",
"^ Y T J v 5 M u V s w w c n G L e d K L ~ T ^ E L v G L ( I i e h H ( ( F h v G ^ ^ W q y f z ` ",
"T Y Y s V N u V K N K v 0 h L n d D ( T L _ G v E ( v A I S e : h L I / _ I I _ ^ / H h z z z 7 ",
"= M ] ~ ] ' T ~ T / T V c H G i b A ( L ^ N h G G m L L ( L I b h d A J A G I v q m b m z F Z 7 ",
"8 X.M s V J ..~ _ n n Y c u i v c c n ~ ) n m ) H L ^ H L J m h H A v q s h I b a V M y Z U R Z ",
"l T V Q V V / ] L / u s L n n G n m n n c m ) ) H E n T ^ I ( m p / J _ ( L I ( T J d z R ( F C ",
"! $ a K Y M u Y ^ n ^ m 3 = h i c c m ~ ) m m m E v H v n m ^ L 9 > L _ ^ A E ^ l < g x Z Q E R ",
"| x t ] V Y V N i c s 4 0 ; . O c c n m n m m m H ^ m / T / ` T S i % @ L L u r C Z R F F ' [ ' ",
"' | Z a V ) M v m m m q c n m n c q m m m ) ) ^ I n ^ m m ~ L ^ J b M v 7 Z E F D U Q Z D Z { [ ",
"' | ! v a 1 g F m _ ( b c n n m m c c m n m c c m m T I _ n v ^ I 7 < g E o.( J E ( L l f F U ( ",
"Z R R z g 1 k M m T  .n * c m m m c : m ~ ^ m m m ) u p q v c 4 n 1 j I ` ( { ^ J b i y Q a l R ",
"P U M R Q d t e n .._ m c c m m m c 4 m m ~ m c c 3 u 4 = & % ; ; m p ^ ^ E Q J L J E m [ T z K ",
"f d F [ { z 1 M ' K D  .x J K M L A M @ 3 e 9 e > r 9 < < b I L m m ^ I m Y n T ( m m p I P m I ",
"f Q R Z R l > t T ' Q D J 8 D U b E N l & = 7 J J W ^ _ S ^ `  .^ S F I ^ n s n m ^ m I G m J J ",
"f g U C C  .f & t K V Q { t t 9 5 a v k e Y _ G ( G  .W I I L G F b ( m n m m c n n m ^ / l R F ",
"D t C - > C U t 5 ' ! J Q D d u i s J N h i E T ^ F E A ^ ^ L ( l v v m m H m n m ~ a 4 A i S E ",
"k U P M z 1 E F 6 6 A M a 8 g M S n G 0 h v G H G J n v P E I F S ( m E m v L J T M t 6 S ] Q A ",
"U f D V U g l U D A 1 t M t M M J G A J G H M K ^ n G m n I L P ` ( m W L b m v S t z 8 U v E U ",
"u 8 d t - l F F D M Q ( K { / M E D T E G L b H L A H b v P J l v H J G q a m v k C F a V T T M ",
"t @ t U T M U U b U _ ( G T A M k a s : h c h N A G v n ^ G 7 p - + 4 4 v H m I l R F M l 5 6 6 ",
"i m L ` E H b b w a i h c L v A a M w t l A S b k e 6 e d 6 8 e 5 6 % X   @ = d d ! ! d $ & ; , ",
"q n ^ I c p m c A J n A n A A J j 6 a T ( T A 6 A G ; & + < z U F ' / D M g > 8 l M Y ^ H A l l ",
"F i _ L d 3 m I A n h J v b m T h h 0 N A N N w 3 # + e t [ ] X...~ T K ~ / N k N K A V H N ] T ",
"F < v H ` - m h h D d v b b N v H h u c v 0 a e e 6 1 G X.]  .V K V K T N T D t k H v a k N / D ",
"I S b T _ S h c ^ m H ( L m H m c n h G w 6 t D T ) T U E Y 5 M M Y D K V V C g # h s N N N Y ( ",
"W F N L ( I p q c m ( _ F c c c N H N i l h g ' ^ T T U v 5 v u V s 8 a T a D D > @ e b N v N Y ",
"A E v A I m q : c T E / _ I L ^ T J M d l z f 1 ~ ~ Y s K n i N V M K V M V H A M - : v i v M n ",
"H J L L ( I I m p c m L m H I c e M v M x D F 8 = M ] T ) ) L ^ Q / U V s T T H F Z > : c H N H "
};
